<svg xmlns="http://www.w3.org/2000/svg" viewBox="0 0 500 500"><g id="freepik--background-complete--inject-90"><rect y="382.4" width="500" height="0.25" style="fill:#ebebeb"></rect><rect x="416.78" y="398.49" width="33.12" height="0.25" style="fill:#ebebeb"></rect><rect x="322.53" y="401.21" width="8.69" height="0.25" style="fill:#ebebeb"></rect><rect x="396.59" y="389.21" width="19.19" height="0.25" style="fill:#ebebeb"></rect><rect x="52.46" y="390.89" width="43.19" height="0.25" style="fill:#ebebeb"></rect><rect x="104.56" y="390.89" width="6.33" height="0.25" style="fill:#ebebeb"></rect><rect x="131.47" y="395.11" width="93.68" height="0.25" style="fill:#ebebeb"></rect><path d="M237,337.8H43.91a5.71,5.71,0,0,1-5.7-5.71V60.66A5.71,5.71,0,0,1,43.91,55H237a5.71,5.71,0,0,1,5.71,5.71V332.09A5.71,5.71,0,0,1,237,337.8ZM43.91,55.2a5.46,5.46,0,0,0-5.45,5.46V332.09a5.46,5.46,0,0,0,5.45,5.46H237a5.47,5.47,0,0,0,5.46-5.46V60.66A5.47,5.47,0,0,0,237,55.2Z" style="fill:#ebebeb"></path><path d="M453.31,337.8H260.21a5.72,5.72,0,0,1-5.71-5.71V60.66A5.72,5.72,0,0,1,260.21,55h193.1A5.71,5.71,0,0,1,459,60.66V332.09A5.71,5.71,0,0,1,453.31,337.8ZM260.21,55.2a5.47,5.47,0,0,0-5.46,5.46V332.09a5.47,5.47,0,0,0,5.46,5.46h193.1a5.47,5.47,0,0,0,5.46-5.46V60.66a5.47,5.47,0,0,0-5.46-5.46Z" style="fill:#ebebeb"></path><rect x="281.8" y="104.95" width="162.53" height="162.53" style="fill:#ebebeb"></rect><rect x="287.77" y="110.79" width="150.7" height="150.7" style="fill:#f5f5f5"></rect><polygon points="334.91 110.79 294.6 261.42 294.58 261.49 287.77 261.49 287.77 212.77 315.06 110.79 334.91 110.79" style="fill:#fafafa"></polygon><polygon points="353.88 110.79 313.57 261.42 313.56 261.49 303.19 261.49 303.21 261.42 343.51 110.79 353.88 110.79" style="fill:#fafafa"></polygon><polygon points="438.46 110.79 438.46 156.22 410.3 261.42 410.29 261.49 390.44 261.49 390.46 261.42 430.77 110.79 438.46 110.79" style="fill:#fafafa"></polygon><polygon points="438.46 188.37 438.46 227.11 429.27 261.42 429.25 261.49 418.88 261.49 418.9 261.42 438.46 188.37" style="fill:#fff"></polygon><rect x="359.39" y="106.96" width="7.34" height="158.51" style="fill:#ebebeb"></rect><rect x="400.54" y="106.96" width="3.54" height="158.51" style="fill:#ebebeb"></rect><rect x="322.04" y="106.96" width="3.54" height="158.51" style="fill:#ebebeb"></rect><rect x="361.29" y="67.52" width="3.54" height="158.51" transform="translate(509.83 -216.29) rotate(90)" style="fill:#ebebeb"></rect><rect x="361.29" y="106.96" width="3.54" height="158.51" transform="translate(549.28 -176.84) rotate(90)" style="fill:#ebebeb"></rect><rect x="361.29" y="146.41" width="3.54" height="158.51" transform="translate(588.72 -137.4) rotate(90)" style="fill:#ebebeb"></rect><rect x="177.47" y="180.42" width="29.68" height="42" transform="translate(69.28 451.25) rotate(-110.11)" style="fill:#ebebeb"></rect><rect x="179.41" y="182.39" width="25.81" height="38.05" transform="translate(69.28 451.25) rotate(-110.11)" style="fill:#f5f5f5"></rect><rect x="155.43" y="123.32" width="29.68" height="42" transform="translate(25.95 314.59) rotate(-90)" style="fill:#ebebeb"></rect><rect x="157.37" y="125.3" width="25.81" height="38.05" transform="translate(25.95 314.59) rotate(-90)" style="fill:#f5f5f5"></rect><rect x="103.4" y="98.93" width="29.68" height="42" transform="translate(236.49 239.87) rotate(180)" style="fill:#ebebeb"></rect><rect x="105.34" y="100.91" width="25.81" height="38.05" transform="translate(236.49 239.87) rotate(180)" style="fill:#f5f5f5"></rect><rect x="88.23" y="158.45" width="23.24" height="32.89" transform="translate(295.61 127.59) rotate(106.14)" style="fill:#ebebeb"></rect><rect x="89.75" y="160" width="20.21" height="29.8" transform="translate(295.61 127.59) rotate(106.14)" style="fill:#f5f5f5"></rect></g><g id="freepik--Shadow--inject-90"><ellipse id="freepik--path--inject-90" cx="250" cy="419.6" rx="193.89" ry="18.27" style="fill:#f5f5f5"></ellipse></g><g id="freepik--Sofa--inject-90"><path d="M188.08,310.26H172.3a12.53,12.53,0,0,0-12.52,12.53v84h40.83v-84A12.53,12.53,0,0,0,188.08,310.26Z" style="fill:#1BA098"></path><path d="M333.53,295.9H221.69A21.07,21.07,0,0,0,200.61,317v45h154V317A21.07,21.07,0,0,0,333.53,295.9Z" style="fill:#1BA098"></path><path d="M354.61,317v45h-154V317a21.09,21.09,0,0,1,21.09-21.08H333.53A21.09,21.09,0,0,1,354.61,317Z" style="fill:#fff;isolation:isolate;opacity:0.7000000000000001"></path><path d="M354.61,317v45h-154V319.64c1.76,7.13,6.75,16.48,20.54,20.59,23.77,7.07,62-.15,62-.15s-23.57,1.24-31.14-3.46,8.82.25,36.33-5.8c25.89-5.7,46.49-28.9,60.39-28.49A21,21,0,0,1,354.61,317Z" style="isolation:isolate;opacity:0.05"></path><rect x="188.21" y="368.65" width="151.98" height="38.1" transform="translate(528.4 775.41) rotate(180)" style="fill:#1BA098"></rect><rect x="188.21" y="368.65" width="151.98" height="38.11" style="fill:#fff;isolation:isolate;opacity:0.7000000000000001"></rect><rect x="188.21" y="368.65" width="151.98" height="13.51" transform="translate(528.4 750.82) rotate(180)" style="opacity:0.1"></rect><path d="M346.91,362.39v5.35a11.81,11.81,0,0,1-.24,2.39,12.72,12.72,0,0,1-12.5,10.34H189a12.73,12.73,0,0,1-12.73-12.73v-5.4a9,9,0,0,1,3.3-6.79c6.13-5.17,4.85-5.12,12.75-5.12,8.76,0,24,2.54,35.37,2.42s20.31-2.42,37.67-2.42,20.44,2.17,30.6,2.42,11.77-2.41,25-3.19h4c10.75.66,19.2,6.34,21.57,9.73,0,.2.09.39.12.58A12,12,0,0,1,346.91,362.39Z" style="fill:#1BA098"></path><path d="M346.91,362.39v5.35a11.81,11.81,0,0,1-.24,2.39,12.72,12.72,0,0,1-12.5,10.34H189a12.73,12.73,0,0,1-12.73-12.73v-5.4a9,9,0,0,1,3.3-6.79c6.13-5.17,4.85-5.12,12.75-5.12,8.76,0,24,2.54,35.37,2.42s20.31-2.42,37.67-2.42,20.44,2.17,30.6,2.42,11.77-2.41,25-3.19h4c10.75.66,19.2,6.34,21.57,9.73,0,.2.09.39.12.58A12,12,0,0,1,346.91,362.39Z" style="fill:#fff;isolation:isolate;opacity:0.7000000000000001"></path><path d="M346.69,360.71v8.71c0,.24,0,.47,0,.71-.27,5.77-3.83,10.34-8.2,10.34H325.34c-4.54,0-8.22-5-8.22-11.05v-8.71c0-5.91,3.46-10.74,7.8-11H325c10.75.66,19.2,6.34,21.57,9.73l.1.15c0,.14,0,.29,0,.43S346.69,360.47,346.69,360.71Z" style="isolation:isolate;opacity:0.1"></path><path d="M324.82,349.66h0Z" style="fill:#fff"></path><path d="M325.34,349.66h0Z" style="fill:#fff"></path><path d="M358.1,310.26H342.33a12.53,12.53,0,0,0-12.53,12.53v84h40.83v-84A12.53,12.53,0,0,0,358.1,310.26Z" style="fill:#1BA098"></path><path d="M358.1,310.26H342.33a12.53,12.53,0,0,0-12.53,12.53v84h40.83v-84A12.53,12.53,0,0,0,358.1,310.26Z" style="fill:#fff;isolation:isolate;opacity:0.7000000000000001"></path><path d="M341.54,310.26A11.75,11.75,0,0,0,329.8,322v84.75h23.49V322A11.75,11.75,0,0,0,341.54,310.26Z" style="fill:#fff;isolation:isolate;opacity:0.2"></path></g><g id="freepik--Cushions--inject-90"><path d="M156,411.65l-40.57-1a3.88,3.88,0,0,1-3.87-5l9.95-38.83a6.7,6.7,0,0,1,6.38-4.78l40.57,1a3.88,3.88,0,0,1,3.87,5l-9.95,38.83A6.7,6.7,0,0,1,156,411.65Z" style="fill:#1BA098"></path><path d="M172.28,368l-9.95,38.84a6.69,6.69,0,0,1-6.37,4.78l-40.57-1a3.87,3.87,0,0,1-3.93-4.83c0-.07,0-.13.05-.19l9.95-38.84a6.7,6.7,0,0,1,6.38-4.77l40.58,1a4.38,4.38,0,0,1,2.36.71A3.82,3.82,0,0,1,172.28,368Z" style="fill:#fff;isolation:isolate;opacity:0.30000000000000004"></path><path d="M172.28,368l-9.95,38.84a6.69,6.69,0,0,1-6.37,4.78l-40.57-1a3.87,3.87,0,0,1-3.93-4.83c10.21,8.79,42.75-18.62,41.25-13.91-1.64,5.2-20.89,11.88-13.72,13.05s17-6.15,20.28-11.64c8.06-13.55,3.5-17.31,7.16-23.92,1-1.93,4.14-3.73,4.35-5.67A3.82,3.82,0,0,1,172.28,368Z" style="isolation:isolate;opacity:0.1"></path><path d="M274.9,414.42h66.64c4.47,0,8.67-3.26,8.67-3.26a24.5,24.5,0,0,1-5.69-8.08c-1.73-4.52-18.83-6-28.74-2.92S303.42,395,288.67,396s-18.34,11.85-20.39,13.07S269.69,414.42,274.9,414.42Z" style="fill:#1BA098"></path><path d="M350.21,411.16s-.17.14-.48.35c-1.22.84-4.62,2.91-8.19,2.91H274.89c-4,0-6.91-2.38-7.19-4a1.19,1.19,0,0,1,.58-1.28c2-1.21,5.63-12,20.38-13.07a29.17,29.17,0,0,1,14.59,2.52c3.61,1.49,6.51,2.91,10.83,2a16.46,16.46,0,0,0,1.71-.43c9.9-3.12,27-1.6,28.74,2.92A24.39,24.39,0,0,0,350.21,411.16Z" style="fill:#fff;isolation:isolate;opacity:0.30000000000000004"></path><path d="M291.26,403c.49-1,7.08,2.07,11.14-.55,3.31-2.14.58-1.1.85-3.92,3.61,1.49,6.51,2.91,10.83,2,.63.68,2.34,1.38,5.92,2.43,8.42,2.47-8.43,3.11-16.23,2.36S290.76,404,291.26,403Z" style="isolation:isolate;opacity:0.1"></path><path d="M349.73,411.51c-1.22.84-4.62,2.91-8.19,2.91H274.89c-4,0-6.91-2.38-7.19-4,1.35.78,3.91,1.8,8.45,2.3,7.92.87,21.92-1.74,31.71-.56s26.62,2.16,31.58.74A48.7,48.7,0,0,1,349.73,411.51Z" style="isolation:isolate;opacity:0.1"></path></g><g id="freepik--character-3--inject-90"><g id="freepik--group--inject-90"><path d="M330.48,227.92c-3.22-4.75-6.57-9.52-7.45-15.37a45.77,45.77,0,0,1,.4-6.84c.31-2.5.68-5,1.22-7.42a1.55,1.55,0,0,1,3.06.21c.3,3.55.45,7.43.66,11a11.33,11.33,0,0,0,1.61,5.87,98.5,98.5,0,0,0,5.57,9,3.1,3.1,0,0,1-5.07,3.55Z" style="fill:#ffb573"></path><path d="M331.67,234.26a53.21,53.21,0,0,1-5.76-9.59l6.59-6.43a17.94,17.94,0,0,0,5.6,5.45Z" style="fill:#1BA098"></path><path d="M327.72,198.82l.38-5.15-4.5.39s-.77,3.57,1.74,5.23Z" style="fill:#ebb376"></path><polygon points="326.62 190.31 323.33 191.4 323.6 194.06 328.1 193.67 326.62 190.31" style="fill:#ebb376"></polygon><path d="M338.09,223.69l-6.42,10.57s-.2-.25-.54-.72-1.14-1.62-1.95-2.88a48.35,48.35,0,0,1-3.27-6l6.59-6.43A18,18,0,0,0,338.09,223.69Z" style="fill:#fff;isolation:isolate;opacity:0.5"></path><path d="M331.13,233.54c-.45-.61-1.14-1.62-1.95-2.88a8.86,8.86,0,0,1,3.84-3.15A12.67,12.67,0,0,1,331.13,233.54Z" style="isolation:isolate;opacity:0.2"></path><path d="M319.53,249.9S305,263,303.44,267.77s9.79,21.72,9.79,21.72l4.28-1.49s-6-16.16-6.37-17,12.95-12.47,12.95-12.47Z" style="fill:#ebb376"></path><path d="M312.46,287.3l4.45.21a.35.35,0,0,1,.43.21h0l1.44,3.94a.84.84,0,0,1-.55,1c-1.77.49-2.65.64-4.88,1.29a43.38,43.38,0,0,1-6,1.6c-2,.26-2.17-1.69-1.36-2a12.66,12.66,0,0,0,5.31-3.65C311.81,289,312.18,287.38,312.46,287.3Z" style="fill:#ebb376"></path><path d="M331.18,265.35S325.43,284,326.6,289s19.58,13.58,19.58,13.58l2.9-3.49s-13.45-10.77-14.24-11.32,4.68-17.35,4.68-17.35Z" style="fill:#ebb376"></path><path d="M344.39,301l3.92-2.11a.33.33,0,0,1,.47,0h0l3.26,2.63a.83.83,0,0,1,.07,1.17c-1.27,1.34-1.94,1.92-3.52,3.63a45,45,0,0,1-4.32,4.46c-1.54,1.23-2.72-.33-2.17-1a12.62,12.62,0,0,0,2.67-5.87C344.7,302.83,344.19,301.25,344.39,301Z" style="fill:#ebb376"></path><path d="M321,244.93c1.76-2.68,11.26-12.69,12.41-23.59a80.9,80.9,0,0,0,8.7,4.08c8.16,3.14,11.12,3.42,11.12,3.42s-2.4,14.94-8.35,27.78a.64.64,0,0,1-.85.3l-22.78-11.08A.63.63,0,0,1,321,244.93Z" style="fill:#1BA098"></path><path d="M344.86,256.62a.61.61,0,0,1-.84.3l-22.78-11.09a.6.6,0,0,1-.25-.89c1.76-2.69,11.27-12.7,12.41-23.6a83.14,83.14,0,0,0,8.7,4.08c8.16,3.14,11.12,3.42,11.12,3.42s-.36,2.23-1.14,5.71c-.36,1.58-.81,3.44-1.35,5.46A105.4,105.4,0,0,1,344.86,256.62Z" style="fill:#fff;isolation:isolate;opacity:0.5"></path><path d="M321,245.35c-4,1.16-13.44,9.31-18.15,17.41,0,0,2.89,3.94,17.52,10.09a97.72,97.72,0,0,0,21.27,6.48c.82-8.2,4.53-23.06,3.51-24.18Z" style="fill:#1BA098"></path><path d="M341.64,279.33s-1.31-.2-3.63-.73c-1.09-.25-2.42-.57-3.94-1-1.36-.37-2.88-.82-4.52-1.36-1.14-.36-2.33-.77-3.57-1.21-1.77-.64-3.65-1.37-5.61-2.19l-1.53-.66c-.92-.4-1.8-.79-2.62-1.17-2-.92-3.73-1.78-5.19-2.57-1.15-.62-2.15-1.2-3-1.73a36.11,36.11,0,0,1-3-2c-.41-.31-.74-.58-1-.82a7.56,7.56,0,0,1-1.16-1.13c4.71-8.09,14.12-16.24,18.14-17.39l24.15,9.79C346.17,256.28,342.46,271.13,341.64,279.33Z" style="isolation:isolate;opacity:0.2"></path><path d="M313.72,253.57,305,264.7c-.41-.31-.74-.58-1-.82Z" style="isolation:isolate;opacity:0.2"></path><path d="M308,266.72l14.24-15.08L311,268.45C309.88,267.83,308.88,267.25,308,266.72Z" style="isolation:isolate;opacity:0.2"></path><path d="M316.22,271l11.71-17.08-9.09,18.25C317.92,271.79,317,271.4,316.22,271Z" style="isolation:isolate;opacity:0.2"></path><path d="M326,275l9.18-18.41-5.61,19.62C328.41,275.89,327.22,275.48,326,275Z" style="isolation:isolate;opacity:0.2"></path><path d="M338,278.6c-1.09-.25-2.42-.57-3.94-1l6.56-18.73Z" style="isolation:isolate;opacity:0.2"></path><rect x="323.48" y="174.91" width="7.93" height="6.35" transform="translate(229.19 -181.47) rotate(46.18)" style="fill:#1BA098"></rect><g style="opacity:0.2"><rect x="323.48" y="174.91" width="7.93" height="6.35" transform="translate(229.19 -181.47) rotate(46.18)"></rect></g><rect x="334.94" y="163.21" width="2.2" height="2.2" transform="translate(221.89 -191.9) rotate(46.18)" style="fill:#1BA098"></rect><g style="opacity:0.2"><rect x="334.94" y="163.21" width="2.2" height="2.2" transform="translate(221.89 -191.9) rotate(46.18)"></rect></g><rect x="337.7" y="166.09" width="2.2" height="2.2" transform="translate(224.81 -193.01) rotate(46.18)" style="fill:#1BA098"></rect><g style="opacity:0.2"><rect x="337.7" y="166.09" width="2.2" height="2.2" transform="translate(224.81 -193.01) rotate(46.18)"></rect></g><rect x="340.46" y="168.96" width="2.2" height="2.2" transform="translate(227.75 -194.12) rotate(46.18)" style="fill:#1BA098"></rect><g style="opacity:0.2"><rect x="340.46" y="168.96" width="2.2" height="2.2" transform="translate(227.75 -194.12) rotate(46.18)"></rect></g><rect x="325.03" y="185.87" width="5.24" height="27.6" transform="translate(244.83 -174.98) rotate(46.18)" style="fill:#1BA098"></rect><path d="M316.18,215l.06-2.64a1.75,1.75,0,1,0-1.72-1.79l-2.64-.05a4.39,4.39,0,1,1,4.3,4.48Z" style="fill:#1BA098"></path><rect x="303.26" y="163.19" width="5.24" height="27.6" transform="translate(389.99 520.22) rotate(-133.82)" style="fill:#1BA098"></rect><path d="M294.41,192.29l.06-2.63a1.75,1.75,0,1,0-1.72-1.79l-2.64-.05a4.39,4.39,0,1,1,4.3,4.47Z" style="fill:#1BA098"></path><rect x="309.53" y="176.04" width="21.57" height="17.75" transform="translate(231.93 -174.23) rotate(46.18)" style="fill:#1BA098"></rect><rect x="306.36" y="177.91" width="36.68" height="5.6" transform="translate(230.24 -178.69) rotate(46.18)" style="fill:#1BA098"></rect><rect x="325.43" y="165.49" width="15.7" height="13.98" rx="2.75" transform="translate(226.94 -187.41) rotate(46.18)" style="fill:#1BA098"></rect><rect x="305.27" y="186.05" width="21.57" height="5.92" transform="translate(233.57 -169.89) rotate(46.18)" style="opacity:0.2"></rect><rect x="318.53" y="183.1" width="22.3" height="5.6" transform="translate(235.52 -180.68) rotate(46.18)" style="opacity:0.2"></rect><rect x="316.02" y="193.6" width="7.6" height="2.96" transform="translate(239.11 -170.74) rotate(46.18)" style="fill:#fff;opacity:0.2"></rect><rect x="321.72" y="178.26" width="7.76" height="2.96" transform="translate(229.82 -179.63) rotate(46.18)" style="fill:#fff;opacity:0.2"></rect><rect x="315.12" y="174.93" width="6.81" height="2.96" transform="translate(225.25 -175.55) rotate(46.18)" style="fill:#fff;opacity:0.2"></rect><rect x="315.31" y="184.4" width="7.77" height="2.96" transform="translate(232.28 -173.12) rotate(46.18)" style="fill:#fff;opacity:0.2"></rect><rect x="311.85" y="167.84" width="7.56" height="2.8" transform="translate(219.17 -175.67) rotate(46.18)" style="opacity:0.2"></rect><rect x="331.81" y="186.53" width="2.32" height="5.6" transform="translate(239.01 -182) rotate(46.18)" style="fill:#fff;opacity:0.2"></rect><rect x="304.79" y="169.44" width="5.24" height="12.16" transform="translate(221.18 -167.81) rotate(46.18)" style="opacity:0.2"></rect><rect x="301.48" y="177.22" width="5.24" height="2.96" transform="translate(222.45 -164.44) rotate(46.18)" style="fill:#fff;opacity:0.2"></rect><rect x="295.59" y="182.87" width="5.24" height="2.96" transform="translate(224.71 -158.45) rotate(46.18)" style="fill:#fff;opacity:0.2"></rect><rect x="329.88" y="193.53" width="5.24" height="2.96" transform="translate(242.96 -179.91) rotate(46.18)" style="fill:#fff;opacity:0.2"></rect><rect x="317.36" y="205.55" width="5.24" height="2.96" transform="translate(247.79 -167.18) rotate(46.18)" style="opacity:0.2"></rect><path d="M348.19,228.63s-4.36,1.52-6.56.35a4,4,0,0,1-2-3.69,2.28,2.28,0,0,0,2.38-1.34,16.17,16.17,0,0,0,1.71-4.14l5.2,4.44c-.2.36-.38.71-.54,1C346.87,228.36,348.19,228.63,348.19,228.63Z" style="fill:#ebb376"></path><path d="M349,224.25c-.2.36-.38.71-.54,1-1.45.6-3.6.67-6.37-1.32a16.17,16.17,0,0,0,1.71-4.14Z" style="isolation:isolate;opacity:0.2"></path><path d="M352.92,202.85c-4.78-2.64-7.36-.2-8.49,2.85s-2,2-4.87,1.6-1.71,2-2.12,3.81-3.69-1.43-4.06,2.59c0,0,2.16-.13,2.59,1.34a6.32,6.32,0,0,0,6,4.85c4.23.24,5.45,3.13,5.45,3.13S358,205.63,352.92,202.85Z" style="fill:#263238"></path><path d="M353.52,203.62s-8.66-.21-6.94,9.16C348.53,223.37,353.52,203.62,353.52,203.62Z" style="fill:#263238"></path><path d="M359.82,221.13c-3.66,3.66-9.11,5.33-13.46,3.34-7.26-3.32-8.09-6.7-4.93-11.67,2.82-4.5,9.66-9.56,15.57-6.46S364.9,216.05,359.82,221.13Z" style="fill:#ebb376"></path><path d="M349.93,214.53c-.45.48-1.07.64-1.38.34s-.2-.92.25-1.4,1.06-.63,1.38-.34S350.38,214.05,349.93,214.53Z" style="fill:#263238"></path><path d="M346.27,210.75c-.43.46-1,.61-1.32.32s-.19-.88.24-1.34,1-.6,1.32-.32S346.7,210.29,346.27,210.75Z" style="fill:#263238"></path><path d="M350.36,211.87a.33.33,0,0,1-.12-.14.31.31,0,0,1,.21-.37,2.92,2.92,0,0,1,2.66.46.29.29,0,0,1,0,.41h0a.3.3,0,0,1-.41,0h0a2.32,2.32,0,0,0-2.13-.32A.31.31,0,0,1,350.36,211.87Z" style="fill:#263238"></path><path d="M346.67,206.47a.36.36,0,0,1,.07-.18.31.31,0,0,1,.42,0,2.9,2.9,0,0,1,.92,2.53.29.29,0,0,1-.34.24h0a.32.32,0,0,1-.24-.35h0a2.28,2.28,0,0,0-.78-2A.34.34,0,0,1,346.67,206.47Z" style="fill:#263238"></path><path d="M346.5,212l-1.4,2.5a3.47,3.47,0,0,1-1.45-1.51A8.18,8.18,0,0,0,346.5,212Z" style="fill:#d58745"></path><path d="M344.09,215.53a20.88,20.88,0,0,1-.47,3.06l.51.2c2.3.91,3.66.57,4.48-.08a3.16,3.16,0,0,0,.9-1.21,3,3,0,0,0,.25-.83,11.66,11.66,0,0,1-4.88-.84C344.39,215.66,344.09,215.53,344.09,215.53Z" style="fill:#263238"></path><path d="M344.88,215.83l-.11.9c2.16.85,3.8,1.16,4.74.77a3,3,0,0,0,.25-.83A11.66,11.66,0,0,1,344.88,215.83Z" style="fill:#fff"></path><path d="M344.13,218.79c2.3.91,3.66.57,4.48-.08a7.78,7.78,0,0,0-2.75-.5A3,3,0,0,0,344.13,218.79Z" style="fill:#de5753"></path><path d="M353.37,219.69s3.14-1.45,3.69.38-3.23,5.57-5,3.94S351.41,220.22,353.37,219.69Z" style="fill:#ebb376"></path><path d="M363.67,224.24c.38-1.3-1.83-2.24-.89-4.47,1.12-2.66,3.26-3,2.38-7.11-.7-3.36-2-2.39-3.48-5.31a15.89,15.89,0,0,0-4.32-4.72c-4.29-3.57-7.31-.52-6.68,3.08a2.93,2.93,0,0,1,2.37,1.9c.67,1.93-.58,3.89.95,6.18s1.33,4.48.08,5.32c-1.08.73-1.6,1.41-1.68,3.84-.08,2.6-2.26,2.33-2.33,4.52,0,0,4.52.65,5.5,2a5.39,5.39,0,0,0,5.62,2,7.42,7.42,0,0,0,3.66-2.43S362.51,228.29,363.67,224.24Z" style="fill:#263238"></path><path d="M350.73,240c-1.82-2.28-1.1-6.82-1.1-6.82a5.61,5.61,0,0,1,2.45,1.36C351.72,236.13,351.27,238,350.73,240Z" style="isolation:isolate;opacity:0.2"></path><path d="M353.58,229.9a60.84,60.84,0,0,1,8.14,1.44c3.07.83,5.58,1.42,8.42,3.5,4.15,3.71,2.74,12.8,2,17.7a1.55,1.55,0,0,1-3.06-.17,61.87,61.87,0,0,0-1.47-11.25,7.08,7.08,0,0,0-.53-1.41c-.18-.38-.41-.57-.31-.44-4.05-2-9.43-2.47-13.92-3.22a3.1,3.1,0,0,1,.77-6.15Z" style="fill:#ffb573"></path><path d="M349.31,227.91s6.35,1.65,11.25,2.53l-1.14,8.23a77.91,77.91,0,0,1-8.31-.16C346.59,238,349.31,227.91,349.31,227.91Z" style="fill:#1BA098"></path><path d="M371.8,250.25l1.41,5-4.49.53s-1.47-3.34.65-5.47Z" style="fill:#ebb376"></path><polygon points="372.44 258.82 369 258.41 368.73 255.75 373.21 255.22 372.44 258.82" style="fill:#ebb376"></polygon><path d="M349.31,227.91s6.35,1.65,11.25,2.53l-1.14,8.23a77.91,77.91,0,0,1-8.31-.16C346.59,238,349.31,227.91,349.31,227.91Z" style="fill:#fff;isolation:isolate;opacity:0.5"></path></g></g><g id="freepik--Plant--inject-90"><path d="M396.59,387s-2.43-11-12.82-15.86-13.06-5.8-11.57-9.52,8.86,3.45,8.86,3.45a22.87,22.87,0,0,0-8.22-11.73c-6.31-4.4-14.69-13-12.86-16s9.45,11.5,15,14.19a47.5,47.5,0,0,0-5-11.25c-3.23-4.93-9.38-12.05-8.77-15.52s2.92-3.14,8.72,8.74a134.87,134.87,0,0,0,12.16,20.28s-5.8-16.94-3.1-19.6,6,1.75,6.32,7.5.55,16.31,2.39,20.43c0,0-2.82-13.91,3.94-14.1s3.2,12.2,1.22,17.2,6,20.9,6,20.9Z" style="fill:#1BA098"></path><path d="M396.59,387s-2.43-11-12.82-15.86-13.06-5.8-11.57-9.52,8.86,3.45,8.86,3.45a22.87,22.87,0,0,0-8.22-11.73c-6.31-4.4-14.69-13-12.86-16s9.45,11.5,15,14.19a47.5,47.5,0,0,0-5-11.25c-3.23-4.93-9.38-12.05-8.77-15.52s2.92-3.14,8.72,8.74a134.87,134.87,0,0,0,12.16,20.28s-5.8-16.94-3.1-19.6,6,1.75,6.32,7.5.55,16.31,2.39,20.43c0,0-2.82-13.91,3.94-14.1s3.2,12.2,1.22,17.2,6,20.9,6,20.9Z" style="isolation:isolate;opacity:0.2"></path><path d="M402.09,388.08s-9.88-5.49-11.55-16.81-1.81-14.15-5.81-13.8.77,9.47.77,9.47a22.84,22.84,0,0,1-8.89-11.23c-2.42-7.3-8.28-17.78-11.66-16.89s8.31,12.34,9.29,18.44a47.53,47.53,0,0,1-9.34-8c-3.8-4.51-8.88-12.43-12.38-12.85s-3.84,1.9,5.89,10.85a135.77,135.77,0,0,1,16,17.46s-14.59-10.41-17.91-8.6,0,6.25,5.38,8.21,15.49,5.2,18.92,8.15c0,0-12.54-6.7-14.66-.28s10.79,6.55,16.15,6.09S400.58,390,400.58,390Z" style="fill:#1BA098"></path><polygon points="380.79 394.93 410.99 372.13 424.85 395.59 399.55 414.69 380.79 394.93" style="fill:#263238"></polygon></g><g id="freepik--character-2--inject-90"><g id="freepik--group--inject-90"><path d="M227.05,376.3c4.95-.38,10.29-.48,15-2a37.33,37.33,0,0,0,4.13-2.45c2-1.3,4.06-2.66,6.16-3.94a1.72,1.72,0,0,1,2.25,2.51c-2.87,3.55-5.91,7.17-9.89,9.54-5.63,2.53-11.49,2.9-17.48,3.18a3.41,3.41,0,0,1-.2-6.82Z" style="fill:#ffb573"></path><path d="M222.27,379.89c.21,2.88,3.82,7.11,17.16,2.93l-.13-8.22s-7.22.67-10.19.78A7.93,7.93,0,0,0,222.27,379.89Z" style="fill:#263238"></path><path d="M252.08,368.09l4.26-3.78,2.66,4.21s-2.61,3.06-5.74,2Z" style="fill:#ebb376"></path><polygon points="260.28 363.37 261.51 366.98 259 368.52 256.34 364.31 260.28 363.37" style="fill:#ebb376"></polygon><path d="M236.89,409.88l-30.47,1.87c-.48-3.75-.75-7.55-.87-11.17-.1-2.71-.11-5.32-.07-7.72,0-.55,0-1.08,0-1.59.08-3.72.27-6.85.43-8.94a4.49,4.49,0,0,1,3.19-4,40.1,40.1,0,0,1,10.54-1.53c3.58-.11,6.54-1.78,8.45-1.33,2.31.56,3.62,4.66,3.61,7C231.65,392.43,236.89,409.88,236.89,409.88Z" style="fill:#263238"></path><path d="M221.27,374.87a4.19,4.19,0,0,0,.3,3.23c.1.17.2.34.31.5a6.29,6.29,0,0,0,.6.71h0a5.22,5.22,0,0,1-6,1.29l-3.42-1.51-.74-.34a7.8,7.8,0,0,0,1.48-6.21,10.49,10.49,0,0,0-1.09-3.17l6.88,2,3.12.92A7,7,0,0,0,221.27,374.87Z" style="fill:#ebb376"></path><path d="M221.27,374.87a4.19,4.19,0,0,0,.3,3.23c.1.17.2.34.31.5-3.83-.41-6.64-3.85-8.07-6.06a10.49,10.49,0,0,0-1.09-3.17l6.88,2,3.12.92A7,7,0,0,0,221.27,374.87Z" style="isolation:isolate;opacity:0.2"></path><path d="M218.33,351.4s8.74,3.6,2.9,12.2C214.63,373.32,218.33,351.4,218.33,351.4Z" style="fill:#263238"></path><path d="M204.33,366.12c2,5.27,6.92,10.3,11.64,9.73,8.65-1,11.37-3.6,10.4-10-.84-5.73-5.45-13.79-12.71-13.31S201.5,358.81,204.33,366.12Z" style="fill:#ebb376"></path><path d="M213.75,360.52a.45.45,0,0,0,0,.2.34.34,0,0,0,.4.23,3.19,3.19,0,0,0,2.24-1.92.33.33,0,0,0-.2-.41h0a.34.34,0,0,0-.41.21h0a2.57,2.57,0,0,1-1.82,1.49A.31.31,0,0,0,213.75,360.52Z" style="fill:#263238"></path><path d="M219.83,357.11a.32.32,0,0,0-.14.14.33.33,0,0,0,.21.41,3.16,3.16,0,0,0,2.92-.35.32.32,0,0,0,.06-.45h0a.34.34,0,0,0-.45-.05h0a2.56,2.56,0,0,1-2.34.23A.35.35,0,0,0,219.83,357.11Z" style="fill:#263238"></path><path d="M220.62,361.32l.87,2.66a4.34,4.34,0,0,0,1.82-1.39A7.52,7.52,0,0,1,220.62,361.32Z" style="fill:#d58745"></path><path d="M223.25,370.18a11,11,0,0,1-2.87,1.36,4.52,4.52,0,0,1-3.89-.3,2,2,0,0,1-.61-.69,3.87,3.87,0,0,1,.11-4,2.32,2.32,0,0,1,1-.75,11.5,11.5,0,0,1,5-.62,2.16,2.16,0,0,1,.79.13A8,8,0,0,0,223.25,370.18Z" style="fill:#263238"></path><path d="M221.94,369.51c-.18.45-1.41,1.15-1.56,2a4.52,4.52,0,0,1-3.89-.3,2,2,0,0,1-.61-.69,4.94,4.94,0,0,1,2.69-1.83C221.06,368,222.17,368.89,221.94,369.51Z" style="fill:#de5753"></path><path d="M222,365.18v.62a19.15,19.15,0,0,0-6,.75,2.32,2.32,0,0,1,1-.75A11.5,11.5,0,0,1,222,365.18Z" style="fill:#fff"></path><path d="M220.79,350.89c-1.11-.32-.87-3.09-4.58-3.16s-5.69,2.38-7.14,3.16c-.86.47-3.75-.29-6.55,1.67s-4.5,5-2.8,8-.47,3.88.82,7.13,3.92,3,3.92,3v0c3.24,4.25,6.26,3.71,6.26,3.71-1.34-4.94,2.33-8.27.48-11.74s1.26-5,1.26-5a15.85,15.85,0,0,0,7.7-2.84c.1,1.14-1.32,1.92-1.32,1.92s3.71-1.55,4.12-3.07S221.9,351.21,220.79,350.89Z" style="fill:#263238"></path><path d="M211.41,367.52s-2.49-2.83-3.85-1.24.77,7,3.3,6.15S213.13,368.91,211.41,367.52Z" style="fill:#ebb376"></path><path d="M215.56,362.54a4.43,4.43,0,0,0-2.84,2.14c-.56,1.16,1-.58,1-.58s-1.42,3-1.06,4,.68-1.54.68-1.54-.06,4,.38,4.45-.62-5.83,1.85-8.15Z" style="fill:#1BA098"></path><path d="M223.4,359.78a4.39,4.39,0,0,1,3.49.63c1,.79-1.14-.07-1.14-.07s2.61,2.05,2.74,3.1-1.3-1.08-1.3-1.08,1.84,3.55,1.65,4.15-2.06-5.49-5.31-6.46Z" style="fill:#1BA098"></path><path d="M215.56,362.54a4.43,4.43,0,0,0-2.84,2.14c-.56,1.16,1-.58,1-.58s-1.42,3-1.06,4,.68-1.54.68-1.54-.06,4,.38,4.45-.62-5.83,1.85-8.15Z" style="fill:#fff;opacity:0.7000000000000001"></path><path d="M223.4,359.78a4.39,4.39,0,0,1,3.49.63c1,.79-1.14-.07-1.14-.07s2.61,2.05,2.74,3.1-1.3-1.08-1.3-1.08,1.84,3.55,1.65,4.15-2.06-5.49-5.31-6.46Z" style="fill:#fff;opacity:0.7000000000000001"></path><path d="M215.56,362.81a.15.15,0,0,1-.11,0,.17.17,0,0,1,0-.23,1.75,1.75,0,0,1,2.16-.62.16.16,0,0,1-.15.28,1.43,1.43,0,0,0-1.77.55A.16.16,0,0,1,215.56,362.81Z" style="fill:#263238"></path><path d="M222,360.73h-.06a.15.15,0,0,1-.08-.21,1.57,1.57,0,0,1,.81-.83,1.09,1.09,0,0,1,.93.14.16.16,0,0,1,.06.22.16.16,0,0,1-.22.06.8.8,0,0,0-.67-.11,1.26,1.26,0,0,0-.62.64A.15.15,0,0,1,222,360.73Z" style="fill:#263238"></path><path d="M225.55,365l-.22,0a.19.19,0,0,1-.16-.22.2.2,0,0,1,.23-.16.86.86,0,0,0,.88-.4,1.22,1.22,0,0,1,1.28-.58.87.87,0,0,0,.89-.4,1.21,1.21,0,0,1,1.28-.58.86.86,0,0,0,.88-.4,1.22,1.22,0,0,1,1.29-.58.86.86,0,0,0,.88-.41,1.26,1.26,0,0,1,1.28-.58.86.86,0,0,0,.89-.4.18.18,0,0,1,.26-.06.18.18,0,0,1,.07.26A1.19,1.19,0,0,1,234,361a.88.88,0,0,0-.89.41,1.26,1.26,0,0,1-1.28.58.84.84,0,0,0-.88.4,1.27,1.27,0,0,1-1.29.58.84.84,0,0,0-.88.4,1.22,1.22,0,0,1-1.28.58.86.86,0,0,0-.89.4A1.23,1.23,0,0,1,225.55,365Z" style="fill:#263238"></path><path d="M226.41,367.08a1.19,1.19,0,0,1-.49-.1.19.19,0,0,1,.15-.35.86.86,0,0,0,1-.2,1.23,1.23,0,0,1,1.38-.27h0a.83.83,0,0,0,.93-.19,1.25,1.25,0,0,1,1.38-.28.88.88,0,0,0,1-.19,1.24,1.24,0,0,1,1.38-.28.86.86,0,0,0,1-.19,1.25,1.25,0,0,1,1.38-.28.84.84,0,0,0,.95-.19.18.18,0,0,1,.27,0,.19.19,0,0,1,0,.27,1.25,1.25,0,0,1-1.38.28.86.86,0,0,0-.95.19,1.25,1.25,0,0,1-1.38.28.86.86,0,0,0-1,.19,1.28,1.28,0,0,1-1.38.28.85.85,0,0,0-1,.19,1.24,1.24,0,0,1-1.38.27h0a.86.86,0,0,0-.94.19A1.23,1.23,0,0,1,226.41,367.08Z" style="fill:#263238"></path><path d="M236.14,370a1.19,1.19,0,0,1-.76-.26.84.84,0,0,0-1-.05,1.27,1.27,0,0,1-1.41-.08.86.86,0,0,0-1-.06,1.22,1.22,0,0,1-1.4-.08.84.84,0,0,0-1-.05,1.27,1.27,0,0,1-1.41-.08.86.86,0,0,0-1-.06,1.24,1.24,0,0,1-1.4-.08.19.19,0,1,1,.23-.31.86.86,0,0,0,1,.06,1.24,1.24,0,0,1,1.41.08.86.86,0,0,0,1,.05,1.26,1.26,0,0,1,1.4.08.86.86,0,0,0,1,.06,1.24,1.24,0,0,1,1.41.08.86.86,0,0,0,1,.06,1.22,1.22,0,0,1,1.4.08.86.86,0,0,0,1,.05.21.21,0,0,1,.27.07.19.19,0,0,1-.07.26A1.24,1.24,0,0,1,236.14,370Z" style="fill:#263238"></path><g style="opacity:0.6000000000000001"><path d="M225.55,365l-.22,0a.19.19,0,0,1-.16-.22.2.2,0,0,1,.23-.16.86.86,0,0,0,.88-.4,1.22,1.22,0,0,1,1.28-.58.87.87,0,0,0,.89-.4,1.21,1.21,0,0,1,1.28-.58.86.86,0,0,0,.88-.4,1.22,1.22,0,0,1,1.29-.58.86.86,0,0,0,.88-.41,1.26,1.26,0,0,1,1.28-.58.86.86,0,0,0,.89-.4.18.18,0,0,1,.26-.06.18.18,0,0,1,.07.26A1.19,1.19,0,0,1,234,361a.88.88,0,0,0-.89.41,1.26,1.26,0,0,1-1.28.58.84.84,0,0,0-.88.4,1.27,1.27,0,0,1-1.29.58.84.84,0,0,0-.88.4,1.22,1.22,0,0,1-1.28.58.86.86,0,0,0-.89.4A1.23,1.23,0,0,1,225.55,365Z" style="fill:#fff"></path><path d="M226.41,367.08a1.19,1.19,0,0,1-.49-.1.19.19,0,0,1,.15-.35.86.86,0,0,0,1-.2,1.23,1.23,0,0,1,1.38-.27h0a.83.83,0,0,0,.93-.19,1.25,1.25,0,0,1,1.38-.28.88.88,0,0,0,1-.19,1.24,1.24,0,0,1,1.38-.28.86.86,0,0,0,1-.19,1.25,1.25,0,0,1,1.38-.28.84.84,0,0,0,.95-.19.18.18,0,0,1,.27,0,.19.19,0,0,1,0,.27,1.25,1.25,0,0,1-1.38.28.86.86,0,0,0-.95.19,1.25,1.25,0,0,1-1.38.28.86.86,0,0,0-1,.19,1.28,1.28,0,0,1-1.38.28.85.85,0,0,0-1,.19,1.24,1.24,0,0,1-1.38.27h0a.86.86,0,0,0-.94.19A1.23,1.23,0,0,1,226.41,367.08Z" style="fill:#fff"></path><path d="M236.14,370a1.19,1.19,0,0,1-.76-.26.84.84,0,0,0-1-.05,1.27,1.27,0,0,1-1.41-.08.86.86,0,0,0-1-.06,1.22,1.22,0,0,1-1.4-.08.84.84,0,0,0-1-.05,1.27,1.27,0,0,1-1.41-.08.86.86,0,0,0-1-.06,1.24,1.24,0,0,1-1.4-.08.19.19,0,1,1,.23-.31.86.86,0,0,0,1,.06,1.24,1.24,0,0,1,1.41.08.86.86,0,0,0,1,.05,1.26,1.26,0,0,1,1.4.08.86.86,0,0,0,1,.06,1.24,1.24,0,0,1,1.41.08.86.86,0,0,0,1,.06,1.22,1.22,0,0,1,1.4.08.86.86,0,0,0,1,.05.21.21,0,0,1,.27.07.19.19,0,0,1-.07.26A1.24,1.24,0,0,1,236.14,370Z" style="fill:#fff"></path></g><path d="M211.86,406.28s-5.86-7.21-12.3-3.13,4.68,25.29,29.88,22.09,25.06-23.4,20.37-26.27-14.92,5.34-14.92,5.34Z" style="fill:#1BA098"></path><path d="M252.16,406.85c-.65,7-6.32,16.3-22.71,18.39-9,1.15-16.28-.85-21.54-4.06-9.4-5.75-12.49-15.41-8.36-18,6.45-4.08,12.31,3.13,12.31,3.13l23-2s10.23-8.21,14.92-5.34C251.44,400,252.52,403.08,252.16,406.85Z" style="fill:#fff;isolation:isolate;opacity:0.30000000000000004"></path><path d="M252.16,406.85c-.65,7-6.32,16.3-22.71,18.39-9,1.15-16.28-.85-21.54-4.06a10.11,10.11,0,0,1-3.74-9.21s3.77-9.9,10.53-5.93,20.19,8.27,20.19,8.27,2.15,0,7.52-9.63C244.52,400.9,249.7,403.55,252.16,406.85Z" style="isolation:isolate;opacity:0.2"></path><path d="M231.17,415.58a5.39,5.39,0,0,1-.87.78.09.09,0,0,1-.11,0,.12.12,0,0,1-.05-.1c0-.16.17-1.64.67-1.91a.38.38,0,0,1,.37,0,.53.53,0,0,1,.35.46A1.16,1.16,0,0,1,231.17,415.58Zm-.25-1c-.26.14-.46.92-.54,1.51.62-.49,1-.93,1-1.22a.38.38,0,0,0-.23-.29.19.19,0,0,0-.18,0Z" style="fill:#1BA098"></path><path d="M230.36,415.29a5.65,5.65,0,0,1,.13,1.16.09.09,0,0,1-.06.09.11.11,0,0,1-.11,0c-.12-.11-1.23-1.1-1.16-1.66a.38.38,0,0,1,.22-.3.53.53,0,0,1,.57,0A1.11,1.11,0,0,1,230.36,415.29Zm-1-.4c0,.3.49.91.93,1.32,0-.79-.21-1.33-.45-1.48a.38.38,0,0,0-.37,0,.18.18,0,0,0-.11.14Z" style="fill:#1BA098"></path><path d="M229.61,416.27l-3.15,3.7a.31.31,0,0,0,0,.44h0l2.78,2.67a.75.75,0,0,0,1.07-.08c1.08-1.3,1.53-2,2.9-3.62a39.5,39.5,0,0,0,3.56-4.45c.94-1.55-.62-2.44-1.15-1.87a12,12,0,0,1-5.36,2.81A1.25,1.25,0,0,0,229.61,416.27Z" style="fill:#ebb376"></path><path d="M245.56,424a5.37,5.37,0,0,1-.81-.84.08.08,0,0,1,0-.1.1.1,0,0,1,.09-.06c.17,0,1.65.1,1.94.59a.38.38,0,0,1,0,.37.54.54,0,0,1-.44.37A1.2,1.2,0,0,1,245.56,424Zm1-.29c-.16-.26-1-.42-1.54-.48.52.6,1,.93,1.26.9a.38.38,0,0,0,.28-.24.19.19,0,0,0,0-.18Z" style="fill:#1BA098"></path><path d="M245.82,423.16a5.62,5.62,0,0,1-1.15.18.12.12,0,0,1-.1,0,.14.14,0,0,1,0-.11c.11-.14,1-1.29,1.61-1.24a.38.38,0,0,1,.31.21.53.53,0,0,1,0,.57A1.16,1.16,0,0,1,245.82,423.16Zm.36-1c-.3,0-.89.52-1.28,1,.79-.07,1.32-.26,1.46-.5a.35.35,0,0,0,0-.37.16.16,0,0,0-.15-.1Z" style="fill:#1BA098"></path><path d="M244.81,422.45l-3.83-3a.31.31,0,0,0-.43,0h0L238,422.38a.77.77,0,0,0,.12,1.07c1.36,1,2,1.44,3.75,2.75a40.56,40.56,0,0,0,4.6,3.37c1.58.87,2.41-.72,1.81-1.23a12,12,0,0,1-3-5.23A1.24,1.24,0,0,0,244.81,422.45Z" style="fill:#ebb376"></path><path d="M202.1,402.08c6.28-3.24,28.08,13.54,28.08,13.54l-2.82,6s-22.58-6.16-25.26-9.69C199,407.8,197.62,404.39,202.1,402.08Z" style="fill:#1BA098"></path><path d="M202.1,402.08c6.28-3.24,28.08,13.54,28.08,13.54l-2.82,6s-22.58-6.16-25.26-9.69C199,407.8,197.62,404.39,202.1,402.08Z" style="fill:#fff;isolation:isolate;opacity:0.30000000000000004"></path><path d="M252.16,400.35c3.93,4.81-6.34,22.81-6.34,22.81L239.35,420s3.27-14.71,4.9-18.58C246.27,396.6,250,397.75,252.16,400.35Z" style="fill:#1BA098"></path><path d="M252.16,400.35c3.93,4.81-6.34,22.81-6.34,22.81L239.35,420s3.27-14.71,4.9-18.58C246.27,396.6,250,397.75,252.16,400.35Z" style="fill:#fff;isolation:isolate;opacity:0.30000000000000004"></path><path d="M205.48,392.86c0-.55,0-1.08,0-1.59.08-3.72.27-6.85.43-8.94a4.55,4.55,0,0,1,.77-2.22c1.72-.93,2.94-1.5,2.94-1.5l13.54,4.5S226.81,393.66,205.48,392.86Z" style="isolation:isolate;opacity:0.2"></path><path d="M230.85,376l4.26-3.77,2.67,4.2s-2.61,3.06-5.74,2Z" style="fill:#ebb376"></path><polygon points="239.05 371.25 240.29 374.86 237.78 376.4 235.11 372.2 239.05 371.25" style="fill:#ebb376"></polygon><path d="M210.75,379.4c3.36,1.62,7.42,3.8,11.14,3.82,1.63-.32,3-1.71,4.3-2.8,1.68-1.47,3.33-3.17,5-4.8a1.72,1.72,0,0,1,2.76,1.93c-2,4.07-4.42,8.07-8.26,10.75-1.93,1.41-5.23,1.51-7.28,1.13a33.82,33.82,0,0,1-11-4.09,3.41,3.41,0,0,1,3.35-5.94Z" style="fill:#ffb573"></path><path d="M207.11,387.24a30.6,30.6,0,0,0,10.15,3l3.46-7.47s-6.79-2.53-9.51-3.72l-.14-.06C205.8,376.77,202.1,384.49,207.11,387.24Z" style="fill:#263238"></path></g></g><g id="freepik--Blocks--inject-90"><rect x="170.27" y="386.83" width="2.5" height="2.5" style="fill:#1BA098"></rect><rect x="170.27" y="386.83" width="2.5" height="2.5" style="opacity:0.2"></rect><rect x="175.8" y="386.83" width="2.5" height="2.5" style="fill:#1BA098"></rect><rect x="175.8" y="386.83" width="2.5" height="2.5" style="opacity:0.2"></rect><rect x="181.33" y="386.83" width="2.5" height="2.5" style="fill:#1BA098"></rect><rect x="181.33" y="386.83" width="2.5" height="2.5" style="opacity:0.2"></rect><rect x="186.87" y="386.83" width="2.5" height="2.5" style="fill:#1BA098"></rect><rect x="186.87" y="386.83" width="2.5" height="2.5" style="opacity:0.2"></rect><polygon points="167.81 429.83 167.81 402.54 176.31 402.54 176.31 426.64 179.89 428.05 179.89 429.83 167.81 429.83" style="fill:#1BA098"></polygon><polygon points="183.8 429.83 183.8 402.54 192.31 402.54 192.31 426.64 195.89 428.05 195.89 429.83 183.8 429.83" style="fill:#1BA098"></polygon><rect x="167.81" y="388.64" width="24.51" height="15.75" style="fill:#1BA098"></rect><rect x="167.81" y="411.48" width="8.51" height="8.51" style="fill:#fff;opacity:0.2"></rect><rect x="167.81" y="396.77" width="24.51" height="7.61" style="opacity:0.2"></rect><rect x="183.8" y="407.61" width="8.51" height="3.87" style="fill:#fff;opacity:0.2"></rect><rect x="183.8" y="396.77" width="8.51" height="3.6" style="fill:#fff;opacity:0.2"></rect><rect x="176.31" y="400.37" width="7.49" height="4.01" style="opacity:0.2"></rect><rect x="183.8" y="411.48" width="8.51" height="4.01" style="opacity:0.2"></rect><rect x="167.81" y="415.96" width="8.51" height="4.01" style="opacity:0.2"></rect><rect x="167.81" y="392.76" width="8.51" height="4.01" style="fill:#fff;opacity:0.2"></rect><rect x="183.8" y="388.64" width="8.51" height="4.01" style="fill:#fff;opacity:0.2"></rect><polygon points="176.31 426.64 167.81 426.64 167.81 429.83 179.89 429.83 179.89 428.05 176.31 426.64" style="opacity:0.2"></polygon><rect x="159.51" y="424.69" width="2.5" height="2.5" transform="translate(197.28 -27.86) rotate(25.28)" style="fill:#1BA098"></rect><rect x="159.51" y="424.69" width="2.5" height="2.5" transform="translate(197.28 -27.86) rotate(25.28)" style="opacity:0.4"></rect><rect x="155.47" y="422.78" width="2.5" height="2.5" transform="translate(196.06 -26.32) rotate(25.28)" style="fill:#1BA098"></rect><rect x="155.47" y="422.78" width="2.5" height="2.5" transform="translate(196.06 -26.32) rotate(25.28)" style="opacity:0.4"></rect><rect x="151.43" y="420.88" width="2.5" height="2.5" transform="translate(194.88 -24.77) rotate(25.28)" style="fill:#1BA098"></rect><rect x="151.43" y="420.88" width="2.5" height="2.5" transform="translate(194.88 -24.77) rotate(25.28)" style="opacity:0.4"></rect><rect x="147.39" y="418.97" width="2.5" height="2.5" transform="translate(193.68 -23.23) rotate(25.28)" style="fill:#1BA098"></rect><rect x="147.39" y="418.97" width="2.5" height="2.5" transform="translate(193.68 -23.23) rotate(25.28)" style="opacity:0.4"></rect><rect x="144.58" y="422.89" width="18.51" height="4.01" transform="translate(196.17 -25.01) rotate(25.28)" style="fill:#1BA098"></rect><rect x="144.58" y="422.89" width="18.51" height="4.01" transform="translate(196.17 -25.01) rotate(25.28)" style="opacity:0.2"></rect><rect x="273.13" y="425.91" width="2.5" height="2.5" style="fill:#1BA098"></rect><rect x="268.67" y="425.91" width="2.5" height="2.5" style="fill:#1BA098"></rect><rect x="264.2" y="425.91" width="2.5" height="2.5" style="fill:#1BA098"></rect><rect x="259.73" y="425.91" width="2.5" height="2.5" style="fill:#1BA098"></rect><rect x="258.43" y="427.16" width="18.51" height="4.01" style="fill:#1BA098"></rect><rect x="258.43" y="427.16" width="18.51" height="4.01" style="fill:#fff;opacity:0.2"></rect><rect x="147.68" y="425.4" width="2.5" height="2.5" style="fill:#1BA098"></rect><rect x="147.68" y="425.4" width="2.5" height="2.5" style="opacity:0.2"></rect><rect x="143.22" y="425.4" width="2.5" height="2.5" style="fill:#1BA098"></rect><rect x="143.22" y="425.4" width="2.5" height="2.5" style="opacity:0.2"></rect><rect x="141.9" y="426.65" width="9.6" height="4.01" style="fill:#1BA098"></rect><rect x="285.66" y="422.6" width="2.5" height="2.5" transform="translate(-191.16 241.06) rotate(-34.98)" style="fill:#1BA098"></rect><rect x="285.66" y="422.6" width="2.5" height="2.5" transform="translate(-191.16 241.06) rotate(-34.98)" style="opacity:0.4"></rect><rect x="282" y="425.16" width="2.5" height="2.5" transform="translate(-193.29 239.42) rotate(-34.98)" style="fill:#1BA098"></rect><rect x="282" y="425.16" width="2.5" height="2.5" transform="translate(-193.29 239.42) rotate(-34.98)" style="opacity:0.4"></rect><rect x="281.43" y="424.77" width="9.6" height="4.01" transform="translate(-192.97 241.21) rotate(-34.98)" style="fill:#1BA098"></rect><rect x="281.43" y="424.77" width="9.6" height="4.01" transform="translate(-192.97 241.21) rotate(-34.98)" style="opacity:0.2"></rect><rect x="208.89" y="428.54" width="2.5" height="2.5" style="fill:#1BA098"></rect><rect x="208.89" y="428.54" width="2.5" height="2.5" style="opacity:0.2"></rect><rect x="204.42" y="428.54" width="2.5" height="2.5" style="fill:#1BA098"></rect><rect x="204.42" y="428.54" width="2.5" height="2.5" style="opacity:0.2"></rect><rect x="199.96" y="428.54" width="2.5" height="2.5" style="fill:#1BA098"></rect><rect x="199.96" y="428.54" width="2.5" height="2.5" style="opacity:0.2"></rect><rect x="198.6" y="429.79" width="14.14" height="4.01" style="fill:#1BA098"></rect><rect x="198.6" y="429.79" width="14.14" height="4.01" style="fill:#fff;opacity:0.2"></rect><rect x="297.77" y="425.91" width="2.5" height="2.5" style="fill:#1BA098"></rect><rect x="297.77" y="425.91" width="2.5" height="2.5" style="opacity:0.2"></rect><rect x="293.3" y="425.91" width="2.5" height="2.5" style="fill:#1BA098"></rect><rect x="293.3" y="425.91" width="2.5" height="2.5" style="opacity:0.2"></rect><rect x="288.83" y="425.91" width="2.5" height="2.5" style="fill:#1BA098"></rect><rect x="288.83" y="425.91" width="2.5" height="2.5" style="opacity:0.2"></rect><rect x="287.48" y="427.16" width="14.14" height="4.01" style="fill:#1BA098"></rect></g><g id="freepik--character-1--inject-90"><polygon points="74.69 410.09 81.25 410.09 83.11 394.91 76.55 394.91 74.69 410.09" style="fill:#ebb376"></polygon><polygon points="76.55 394.91 83.11 394.91 82.15 402.74 75.59 402.74 76.55 394.91" style="opacity:0.2"></polygon><path d="M90.49,263.09s4,46.89,4.28,66.12c.27,21.06-9.58,72-9.58,72h-12s4.79-46.92,3.2-67.78c-1.79-23.33-8.09-65.85-8.09-65.85Z" style="fill:#263238"></path><g style="opacity:0.2"><path d="M90.49,263.09s4,46.89,4.28,66.12c.27,21.06-9.58,72-9.58,72h-12s4.79-46.92,3.2-67.78c-1.79-23.33-8.09-65.85-8.09-65.85Z" style="fill:#fff"></path></g><path d="M100.2,313.8l-5.79-3.45a.58.58,0,0,0-.7-.19l-5.48,2.35a1,1,0,0,0-.39,1.44c1.57,2.06,7.28,8.62,9.92,12.21,1.59,2.18,4.24,1.19,3.77.14-2.13-4.8-2.94-3.74-2.66-8.92A5.74,5.74,0,0,1,100.2,313.8Z" style="fill:#ebb376"></path><path d="M81.55,407.08l-6.33,2.31a.56.56,0,0,0-.58.41L73,415.54a1,1,0,0,0,.88,1.21c2.59.09,11.27-.2,15.73,0,2.69.13,3.6-2.54,2.49-2.84-5.07-1.38-4.75-.09-8.6-3.57A5.75,5.75,0,0,1,81.55,407.08Z" style="fill:#ebb376"></path><polygon points="86.63 401.48 72.49 401.48 72.53 397.26 87.29 396.4 86.63 401.48" style="fill:#263238"></polygon><polygon points="92.31 310.99 96.41 316.12 109.42 308.14 105.32 303.01 92.31 310.99" style="fill:#ebb376"></polygon><polygon points="109.42 308.14 102.71 312.26 98.61 307.12 105.32 303.01 109.42 308.14" style="opacity:0.2"></polygon><path d="M102.68,260.62l2.93,4.73s47.09-4.18,50.18,3.53c3.71,9.29,1.17,16.73-50.18,45.09l-6.49-10.14L129.85,281l-40.07,9.42-6.67-16.58,2.36-13.24Z" style="fill:#263238"></path><path d="M105.61,314l-6.49-10.15L129.85,281l-21.72,5.1-15.51,3.65h0l-2.82.67-6.67-16.58,2.36-13.24h17.21l2.93,4.73s47.09-4.18,50.18,3.53C159.51,278.18,157,285.61,105.61,314Z" style="fill:#fff;opacity:0.2"></path><polygon points="105.76 314.69 97.72 303.07 101.22 300.7 110.31 312.35 105.76 314.69" style="fill:#263238"></polygon><path d="M108.13,286.12l-15.51,3.65h0l-.29-5S102.17,283.53,108.13,286.12Z" style="opacity:0.2"></path><path d="M118,227.51a76.15,76.15,0,0,0-6.62,11.6A89.25,89.25,0,0,0,106,253.93a67.8,67.8,0,0,0-1.79,8.61l-35.92,5a138.89,138.89,0,0,1,0-17.94,142.14,142.14,0,0,1,3.54-23.25A92.07,92.07,0,0,1,75,215.75C104.6,202.86,118,227.51,118,227.51Z" style="fill:#1BA098"></path><path d="M103.6,201.69c-2,3.77-6,9.83-10.09,11.46l.62,6.09,8-.82a9.19,9.19,0,0,1,3.76-4.35Z" style="fill:#ebb376"></path><path d="M102.67,204.64l3.2,9.43a14.48,14.48,0,0,0-2.07,1.71C98.24,211.59,102.21,204.9,102.67,204.64Z" style="opacity:0.2"></path><path d="M89.54,213.26s0,8.69,6.89,11.35S107.06,219,107.06,219,99.5,210.79,89.54,213.26Z" style="fill:#ebb376"></path><path d="M121.85,195.15c7.26,5.1-2.68,13.91-5.14,13.72C112.1,208.51,116.42,191.34,121.85,195.15Z" style="fill:#263238"></path><path d="M105,196c-3,5.77-5.08,9-4,13.54,1.64,6.85,10,8.44,14.71,3.69,4.21-4.28,8.44-13,4.33-18.49A8.88,8.88,0,0,0,105,196Z" style="fill:#ebb376"></path><path d="M115.85,205a18.69,18.69,0,0,0-.17,5.18,3.05,3.05,0,0,1-2.41-.9Z" style="fill:#d58745"></path><path d="M117.81,203.55a.41.41,0,0,0,0,.09.31.31,0,0,0,.18.4,3.06,3.06,0,0,0,2.82-.26.31.31,0,0,0,.07-.43.32.32,0,0,0-.44-.07,2.46,2.46,0,0,1-2.23.18A.31.31,0,0,0,117.81,203.55Z" style="fill:#263238"></path><path d="M115.25,201.53a.26.26,0,0,1,0,.09.32.32,0,0,1-.44.06,3.08,3.08,0,0,1-1.24-2.55.3.3,0,0,1,.33-.28.31.31,0,0,1,.29.33,2.45,2.45,0,0,0,1,2A.31.31,0,0,1,115.25,201.53Z" style="fill:#263238"></path><path d="M113.85,203.39a.13.13,0,0,1-.11,0,1.7,1.7,0,0,0-1.42-.45.15.15,0,0,1-.16-.14.15.15,0,0,1,.14-.15,2.2,2.2,0,0,1,1.21.22,1.82,1.82,0,0,0-1.23-.73.16.16,0,0,1-.13-.16.15.15,0,0,1,.16-.13,2,2,0,0,1,1.68,1.41.14.14,0,0,1-.07.16A.08.08,0,0,1,113.85,203.39Z" style="fill:#263238"></path><path d="M118.64,206.57a.16.16,0,0,1-.12-.06,1.72,1.72,0,0,0-1.28-.77.15.15,0,0,1-.14-.12.15.15,0,0,1,.08-.16,2,2,0,0,1,2.17.34.14.14,0,0,1,0,.2.13.13,0,0,1-.2,0,1.87,1.87,0,0,0-1.36-.44,2.23,2.23,0,0,1,1,.77.14.14,0,0,1,0,.2A.16.16,0,0,1,118.64,206.57Z" style="fill:#263238"></path><path d="M108.63,212.28a11.44,11.44,0,0,1,3.92,1.32l.28.19a5,5,0,0,1,1.61-1.66l-.18-.21c-.77-.87-3.86-4.18-5.45-3.47C107,209.25,107.18,211.92,108.63,212.28Z" style="fill:#fff"></path><path d="M108.65,209.77s.29.17.72.45l-.14.46.38-.31.94.63-.19.53.42-.37c.37.26.73.53,1.07.79l-.22.5.4-.35a7,7,0,0,1,.82.73l-.3.77.28.19a5,5,0,0,1,1.61-1.66l-.18-.21-1.15.59a8.69,8.69,0,0,0-.85-.69l.3-.67-.52.51c-.32-.23-.7-.48-1.12-.75l.18-.76-.44.62c-.31-.19-.64-.37-1-.55l.12-.66-.35.56C109.18,210,108.93,209.88,108.65,209.77Z" style="opacity:0.2"></path><path d="M106,201.65s-2.28,2.91-1.06,5.89c0,0,4.07-1.27,5.64-.09a10.55,10.55,0,0,1,2.34,2.36l-.29.24s-2.36-2.46-3.43-2.35-3.53,1.79-2.86,3.9,1.73,2.93,2.1,2.67a3.26,3.26,0,0,0,.72-.86l1.24.34s-.54.85-.36,1.34,2.65,0,3.7-1a3.94,3.94,0,0,0,1.18-2.35l-1.89-1.4.19-.31s2.82.67,3,1.4-.6,1.66-1.44,2.65-3.49,4.35-7.62,3.29c-3.3-.85-6.74-5.46-5.67-9.2a19.49,19.49,0,0,1,3.85-6.77Z" style="fill:#263238"></path><path d="M106,201.65s-2.28,2.91-1.06,5.89c0,0,4.07-1.27,5.64-.09a10.55,10.55,0,0,1,2.34,2.36l-.29.24s-2.36-2.46-3.43-2.35-3.53,1.79-2.86,3.9,1.73,2.93,2.1,2.67a3.26,3.26,0,0,0,.72-.86l1.24.34s-.54.85-.36,1.34,2.65,0,3.7-1a3.94,3.94,0,0,0,1.18-2.35l-1.89-1.4.19-.31s2.82.67,3,1.4-.6,1.66-1.44,2.65-3.49,4.35-7.62,3.29c-3.3-.85-6.74-5.46-5.67-9.2a19.49,19.49,0,0,1,3.85-6.77Z" style="fill:#fff;opacity:0.4"></path><path d="M102.64,189.82c-1.85,4-3,13.33-.73,14.43,2.45,1.2,7.2-4.46,8.8-9.74Z" style="fill:#263238"></path><path d="M98.79,200.63a6.14,6.14,0,0,0,1.89,4.33c1.57,1.49,3.37.33,3.77-1.69.37-1.81,0-4.77-2-5.5A2.78,2.78,0,0,0,98.79,200.63Z" style="fill:#ebb376"></path><path d="M122,198.51s-3.07,1.45-4.45-1.09-5.43,0-7.49-1.15-7.8-5.56-7.8-5.56-.06-4.53,3.39-4.83,2-.34,5.18-1,9,2.25,9.21,4.88c0,0,3.25,1.33,4.43,3.82A3.51,3.51,0,0,1,122,198.51Z" style="fill:#263238"></path><path d="M120,190a4.61,4.61,0,0,1-.9-.08.12.12,0,1,1,0-.23,3.83,3.83,0,0,0,2.63-.43,1.55,1.55,0,0,0,.5-1.3.13.13,0,0,1,.12-.13.15.15,0,0,1,.13.12,1.82,1.82,0,0,1-.6,1.49A3,3,0,0,1,120,190Z" style="fill:#263238"></path><path d="M125.78,200.42a.12.12,0,0,1-.12-.12,3,3,0,0,0-2.69-3,.12.12,0,0,1-.11-.13A.13.13,0,0,1,123,197a3.31,3.31,0,0,1,2.9,3.26.12.12,0,0,1-.12.13Z" style="fill:#263238"></path><path d="M104.1,191.45c-.54,0-2.6-.12-3.21-2a.13.13,0,0,1,.08-.16.12.12,0,0,1,.15.08c.64,1.93,3.08,1.8,3.1,1.8s.12,0,.13.11a.14.14,0,0,1-.11.13Z" style="fill:#263238"></path><path d="M99.85,194.9h0a.12.12,0,0,1-.08-.15,2.35,2.35,0,0,1,1.19-1.6,2.8,2.8,0,0,1,2.07,0,.11.11,0,0,1,.07.16.11.11,0,0,1-.15.06,2.65,2.65,0,0,0-1.89,0,2.18,2.18,0,0,0-1.06,1.44A.12.12,0,0,1,99.85,194.9Z" style="fill:#263238"></path><path d="M92.31,283.5l6.27,5-7.93,3.2s-4.8-4.95-2.15-7.31Z" style="fill:#ebb376"></path><polygon points="100.71 295.82 92.95 296.26 90.64 291.69 98.58 288.49 100.71 295.82" style="fill:#ebb376"></polygon><rect x="94.87" y="333.03" width="2.57" height="2.57" transform="translate(174.96 -4.51) rotate(29.14)" style="fill:#1BA098"></rect><rect x="94.87" y="333.03" width="2.57" height="2.57" transform="translate(174.96 -4.51) rotate(29.14)" style="opacity:0.2"></rect><rect x="90.85" y="330.79" width="2.57" height="2.57" transform="translate(173.34 -2.84) rotate(29.14)" style="fill:#1BA098"></rect><rect x="90.85" y="330.79" width="2.57" height="2.57" transform="translate(173.34 -2.84) rotate(29.14)" style="opacity:0.2"></rect><rect x="91.08" y="330.06" width="4.12" height="9.88" transform="translate(-244.81 253.22) rotate(-60.86)" style="fill:#1BA098"></rect><rect x="100.94" y="369.58" width="2.95" height="2.95" transform="translate(-147.79 78.54) rotate(-25.11)" style="fill:#1BA098"></rect><rect x="96.15" y="371.82" width="2.95" height="2.95" transform="translate(-149.2 76.72) rotate(-25.11)" style="fill:#1BA098"></rect><rect x="95.35" y="371.95" width="11.36" height="4.74" transform="translate(-149.32 78.26) rotate(-25.11)" style="fill:#1BA098"></rect><rect x="95.35" y="371.95" width="11.36" height="4.74" transform="translate(-149.32 78.26) rotate(-25.11)" style="fill:#fff;opacity:0.2"></rect><path d="M111.38,239.11c-2.59,5.54-3.94,14.45-5,18.54-2.66-2.7-3.66-9-4-11.4A22,22,0,0,1,104,234.08Z" style="opacity:0.2"></path><path d="M116.21,233.84c-1.63,7.3-3.57,14.78-4.73,22.11a22.69,22.69,0,0,0-.09,6.69c.91,8.62,3.35,21.51,4.77,30.28l-4.65,1.23c-1.77-4.93-3.37-9.88-4.81-14.92-1.76-6.4-3.63-12.9-4.25-19.72-.22-9.56,2.12-18.87,4.36-28l9.4,2.38Z" style="fill:#e7b278"></path><path d="M118,227.51c2.61,4.09-2.15,18.21-2.15,18.21l-13-2.84s-.07-9,1.71-11.78S118,227.51,118,227.51Z" style="fill:#1BA098"></path><path d="M116.16,292.92l1.93,7.87-7-1.12s-2.72-8,2.13-8.63Z" style="fill:#ebb376"></path><polygon points="116 305.23 110.23 305.38 111.13 299.67 118.09 300.79 116 305.23" style="fill:#ebb376"></polygon><path d="M80.19,239.8c-2,3-6.36,8-11.84,9.85a142.14,142.14,0,0,1,3.54-23.25c2.93-.05,5.3.25,9.65,2.49C81.54,228.89,83.11,235.43,80.19,239.8Z" style="opacity:0.2"></path><path d="M80,226.48c-.25,8.77-1.44,21.72-.59,30.3,1,4.55,3.5,9,5.62,13.24,2.39,4.56,4.93,9.16,7.47,13.7l-3.91,2.79a142.67,142.67,0,0,1-9.83-12.72c-3.14-4.8-6.36-9.45-7.93-15.17-1.18-5.69-1.09-11.1-1.14-16.77,0-5.37.23-10.65.63-16l9.68.63Z" style="fill:#e7b278"></path><path d="M75,215.75c-5,2.84-5.83,9.9-7.57,18.7l13.21,2.44s2.32-8.44,1.66-12.77S75,215.75,75,215.75Z" style="fill:#1BA098"></path></g></svg>
